# xmcd CD database file
#
# Track frame offsets:
#        150
#        12405
#        29094
#        43340
#        57282
#        73277
#        89492
#        106792
#        119550
#        133414
#        148294
#        164420
#
# Disc length: 2396 seconds
#
# Revision: 0
# Processed by: cddbd v1.5.2PL0 Copyright (c) Steve Scherf et al.
# Submitted via: CUERipper 2.1.5
#
DISCID=c2095a0c
DTITLE=The Xmas Men - Santa Is Real
DYEAR=1900
DGENRE=2014
TTITLE0=Sleigh Ride
TTITLE1=Winter Wonderland
TTITLE2=Jingle Bells/Rudolph
TTITLE3=The Xmas Song
TTITLE4=Here Comes Santa Claus
TTITLE5=The Little Drummer Boy/Linus and Lucy
TTITLE6=Merry Xmas from the Family
TTITLE7=Have a Holly Jolly XMas
TTITLE8=Santa Claus Is Coming to Town
TTITLE9=XMas Time Is Here
TTITLE10=Let It Snow
TTITLE11=Have Yourself a Merry Little Xmas
EXTD=
EXTT0=
EXTT1=
EXTT2=
EXTT3=
EXTT4=
EXTT5=
EXTT6=
EXTT7=
EXTT8=
EXTT9=
EXTT10=
EXTT11=
PLAYORDER=
